# xmcd
# 
# Track frame offsets:
#     183
#     29820
#     53343
#     74720
#     105980
#     127633
#     172510
#     204355
# 
# Disc length: 3137
# 
# Revision: 1
# Processed by: cddbd v1.5.2PL0 Copyright (c) Steve Scherf et al.
# Submitted via: fre:ac v1.0.31
# 
DISCID=5c0c3f08
DTITLE=Jean-Luc Ponty - Stéphane Grappelli - Jean-Luc Ponty
DYEAR=1973
DGENRE=Jazz
TTITLE0=Bowing Bowing
TTITLE1=The Girl From Ipanema
TTITLE2=Golden Green
TTITLE3=Memorial Jam For Stuff Smith
TTITLE4=The Lady Is A Tramp
TTITLE5=Violin Summit N° 2
TTITLE6=Valerie
TTITLE7=Satin Doll
EXTD=YEAR: 1973
EXTT0=
EXTT1=
EXTT2=
EXTT3=
EXTT4=
EXTT5=
EXTT6=
EXTT7=
PLAYORDER=
